<?xml version="1.0" encoding="UTF-8" standalone="no"?>
<!-- Created with Inkscape (http://www.inkscape.org/) -->

<svg
   width="327.67096mm"
   height="262.77039mm"
   viewBox="0 0 327.67097 262.77038"
   version="1.1"
   id="svg5"
   inkscape:version="1.1 (c68e22c387, 2021-05-23)"
   sodipodi:docname="cogs.svg"
   xmlns:inkscape="http://www.inkscape.org/namespaces/inkscape"
   xmlns:sodipodi="http://sodipodi.sourceforge.net/DTD/sodipodi-0.dtd"
   xmlns="http://www.w3.org/2000/svg"
   xmlns:svg="http://www.w3.org/2000/svg">
  <sodipodi:namedview
     id="namedview7"
     pagecolor="#505050"
     bordercolor="#ffffff"
     borderopacity="1"
     inkscape:pageshadow="0"
     inkscape:pageopacity="0"
     inkscape:pagecheckerboard="1"
     inkscape:document-units="mm"
     showgrid="false"
     inkscape:zoom="0.52410025"
     inkscape:cx="435.98529"
     inkscape:cy="544.74311"
     inkscape:window-width="1920"
     inkscape:window-height="1017"
     inkscape:window-x="-8"
     inkscape:window-y="-8"
     inkscape:window-maximized="1"
     inkscape:current-layer="layer1" />
  <defs
     id="defs2" />
  <g
     inkscape:label="Layer 1"
     inkscape:groupmode="layer"
     id="layer1"
     transform="translate(-38.840926,-3.8788074)">
    <path
       id="path849"
       style="fill:#fffffe;fill-opacity:0.991968;stroke:#000000;stroke-width:1.80539;stroke-miterlimit:4;stroke-dasharray:none;stroke-opacity:1"
       inkscape:transform-center-x="0.0081943469"
       d="M 49.433524,51.177374 A 92.804114,92.804114 0 0 0 39.81925,75.091046 L 56.282245,97.579485 39.819349,120.06805 a 92.804114,92.804114 0 0 0 25.516623,44.19651 l 27.707214,-3.01312 11.244164,25.50171 a 92.804114,92.804114 0 0 0 51.03425,-3.8e-4 l 11.24399,-25.50116 27.70706,3.01315 a 92.804114,92.804114 0 0 0 15.9023,-20.28329 92.804114,92.804114 0 0 0 9.61469,-23.91343 L 203.32664,97.579596 219.7893,75.091433 A 92.804114,92.804114 0 0 0 194.27227,30.89469 L 166.56529,33.907407 155.29834,8.3537449 a 92.804114,92.804114 0 0 0 -50.98569,-0.00442 L 93.043294,33.90749 65.275798,30.887992 A 92.804114,92.804114 0 0 0 49.433524,51.177374 Z m 39.63565,22.864258 A 47.046531,47.046531 0 0 1 153.33588,56.821422 47.046531,47.046531 0 0 1 170.5561,121.08813 47.046531,47.046531 0 0 1 106.28939,138.30835 47.046531,47.046531 0 0 1 89.069174,74.041632 Z"
       inkscape:transform-center-y="-0.0091606743" />
    <path
       id="path849-0"
       style="fill:#fffffe;fill-opacity:0.991968;stroke:#000000;stroke-width:2;stroke-miterlimit:4;stroke-dasharray:none;stroke-opacity:1"
       inkscape:transform-center-x="0.0076548469"
       d="m 228.81667,86.935032 a 75.453483,75.453483 0 0 0 -9.27012,18.793318 l 11.95853,19.24731 -14.73433,17.2153 a 75.453483,75.453483 0 0 0 17.95847,37.40468 l 22.64805,-0.73269 7.54169,21.36806 a 75.453483,75.453483 0 0 0 41.37319,3.1494 l 10.68931,-19.9797 22.27599,4.15276 a 75.453483,75.453483 0 0 0 14.14376,-15.46209 75.453483,75.453483 0 0 0 9.27044,-18.7931 l -11.95852,-19.24731 14.73411,-17.21499 a 75.453483,75.453483 0 0 0 -17.9588,-37.404903 l -22.64784,0.73238 -7.55694,-21.411581 A 75.453483,75.453483 0 0 0 275.9501,55.60184 l -10.71338,20.024347 -22.32461,-4.161644 a 75.453483,75.453483 0 0 0 -14.09545,15.470749 z m 30.72128,20.982128 a 38.250724,38.250724 0 0 1 53.16345,-9.993934 38.250724,38.250724 0 0 1 9.99393,53.163464 38.250724,38.250724 0 0 1 -53.16344,9.99395 38.250724,38.250724 0 0 1 -9.99394,-53.16348 z"
       inkscape:transform-center-y="-0.0080550437" />
    <path
       id="path849-0-8"
       style="fill:#fffffe;fill-opacity:0.991968;stroke:#000000;stroke-width:2;stroke-miterlimit:4;stroke-dasharray:none;stroke-opacity:1"
       inkscape:transform-center-x="0.0030290969"
       d="m 156.32398,203.05887 a 45.284974,45.284974 0 0 0 -3.12857,12.18141 l 9.39661,9.8314 -6.53264,11.92804 a 45.284974,45.284974 0 0 0 15.15893,19.75707 l 13.21263,-3.22199 7.06366,11.62151 a 45.284974,45.284974 0 0 0 24.68987,-3.24981 l 3.81593,-13.05318 13.59629,-0.30653 a 45.284974,45.284974 0 0 0 6.40182,-10.82545 45.284974,45.284974 0 0 0 3.1288,-12.18132 l -9.3966,-9.83141 6.53255,-11.92783 A 45.284974,45.284974 0 0 0 225.1041,184.02362 l -13.21255,3.22179 -7.07799,-11.64519 a 45.284974,45.284974 0 0 0 -24.66665,3.24455 l -3.82458,13.08239 -13.62591,0.30729 a 45.284974,45.284974 0 0 0 -6.37242,10.82458 z m 20.63125,8.53769 a 22.956966,22.956966 0 0 1 29.99512,-12.42319 22.956966,22.956966 0 0 1 12.42318,29.99513 22.956966,22.956966 0 0 1 -29.99511,12.4232 22.956966,22.956966 0 0 1 -12.42319,-29.99514 z"
       inkscape:transform-center-y="-0.0036407893" />
  </g>
</svg>
