<?xml version="1.0" encoding="UTF-8" standalone="no"?>
<!DOCTYPE svg PUBLIC "-//W3C//DTD SVG 1.1//EN" "http://www.w3.org/Graphics/SVG/1.1/DTD/svg11.dtd">
<svg width="100%" height="100%" viewBox="0 0 1080 1080" version="1.1" xmlns="http://www.w3.org/2000/svg" xmlns:xlink="http://www.w3.org/1999/xlink" xml:space="preserve" xmlns:serif="http://www.serif.com/" style="fill-rule:evenodd;clip-rule:evenodd;stroke-linecap:round;stroke-linejoin:round;stroke-miterlimit:1.5;">
    <g transform="matrix(1.47806,0,0,1.47806,-307.188,-408.073)">
        <path d="M441.531,829.808L415.013,924.328L388.463,829.694C337.022,827.22 296.017,784.673 296.017,732.624L296.017,538.255C296.017,484.618 339.564,441.071 393.201,441.071L731.258,441.071C784.896,441.071 828.443,484.618 828.443,538.255L828.443,732.624C828.443,786.261 784.896,829.808 731.258,829.808L441.531,829.808Z" style="fill:rgb(41,41,41);stroke:white;stroke-width:2.71px;"/>
    </g>
    <g transform="matrix(1.47806,0,0,1.47806,-188.703,284.162)">
        <path d="M683.641,225.902C677.152,225.293 670.62,225.293 664.132,225.902L652.268,243.944C651.381,244.167 650.497,244.404 649.617,244.654L630.322,234.961C624.398,237.679 618.742,240.944 613.427,244.716L612.173,266.273C611.517,266.909 610.87,267.556 610.233,268.213L588.676,269.466C584.905,274.781 581.639,280.438 578.922,286.361L588.615,305.657C588.364,306.537 588.128,307.42 587.905,308.307L569.862,320.171C569.254,326.66 569.254,333.191 569.862,339.68L587.905,351.544C588.128,352.431 588.364,353.315 588.615,354.194L578.922,373.49C581.639,379.414 584.905,385.07 588.676,390.385L610.233,391.639C610.87,392.295 611.517,392.942 612.173,393.579L613.427,415.136C618.742,418.907 624.398,422.173 630.322,424.89L649.617,415.197C650.497,415.448 651.381,415.684 652.268,415.907L664.132,433.95C670.62,434.558 677.152,434.558 683.641,433.95L695.505,415.907C696.392,415.684 697.275,415.448 698.155,415.197L717.45,424.89C723.374,422.173 729.031,418.907 734.346,415.136L735.599,393.579C736.256,392.942 736.903,392.295 737.539,391.639L759.096,390.385C762.868,385.07 766.133,379.414 768.851,373.49L759.158,354.194C759.408,353.315 759.645,352.431 759.868,351.544L777.91,339.68C778.518,333.191 778.518,326.66 777.91,320.171L759.868,308.307C759.645,307.42 759.408,306.537 759.158,305.657L768.851,286.361C766.133,280.438 762.868,274.781 759.096,269.466L737.539,268.213C736.903,267.556 736.256,266.909 735.599,266.273L734.346,244.716C729.031,240.944 723.374,237.679 717.45,234.961L698.155,244.654C697.275,244.404 696.392,244.167 695.505,243.944L683.641,225.902ZM673.886,280.561C701.131,280.561 723.251,302.681 723.251,329.926C723.251,357.171 701.131,379.29 673.886,379.29C646.641,379.29 624.521,357.171 624.521,329.926C624.521,302.681 646.641,280.561 673.886,280.561Z" style="fill:rgb(41,41,41);stroke:white;stroke-width:0.68px;"/>
    </g>
    <g transform="matrix(1,0,0,1,0,-16)">
        <path d="M372.093,132.778C372.093,111.261 354.625,93.793 333.108,93.793L255.138,93.793C233.622,93.793 216.153,111.261 216.153,132.778L216.153,281.756C216.153,303.273 233.622,320.741 255.138,320.741L333.108,320.741C354.625,320.741 372.093,303.273 372.093,281.756L372.093,132.778Z" style="fill:rgb(41,41,41);stroke:white;stroke-width:8px;"/>
    </g>
    <g transform="matrix(1,-4.30211e-16,4.30211e-16,1,446.936,-16)">
        <path d="M372.093,132.778C372.093,111.261 354.625,93.793 333.108,93.793L255.138,93.793C233.622,93.793 216.153,111.261 216.153,132.778L216.153,281.756C216.153,303.273 233.622,320.741 255.138,320.741L333.108,320.741C354.625,320.741 372.093,303.273 372.093,281.756L372.093,132.778Z" style="fill:rgb(41,41,41);stroke:white;stroke-width:8px;"/>
    </g>
    <g transform="matrix(1.06501,0.0738265,-0.0738265,1.06501,222.776,161.606)">
        <path d="M683.641,225.902C677.152,225.293 670.62,225.293 664.132,225.902L652.268,243.944C651.381,244.167 650.497,244.404 649.617,244.654L630.322,234.961C624.398,237.679 618.742,240.944 613.427,244.716L612.173,266.273C611.517,266.909 610.87,267.556 610.233,268.213L588.676,269.466C584.905,274.781 581.639,280.438 578.922,286.361L588.615,305.657C588.364,306.537 588.128,307.42 587.905,308.307L569.862,320.171C569.254,326.66 569.254,333.191 569.862,339.68L587.905,351.544C588.128,352.431 588.364,353.315 588.615,354.194L578.922,373.49C581.639,379.414 584.905,385.07 588.676,390.385L610.233,391.639C610.87,392.295 611.517,392.942 612.173,393.579L613.427,415.136C618.742,418.907 624.398,422.173 630.322,424.89L649.617,415.197C650.497,415.448 651.381,415.684 652.268,415.907L664.132,433.95C670.62,434.558 677.152,434.558 683.641,433.95L695.505,415.907C696.392,415.684 697.275,415.448 698.155,415.197L717.45,424.89C723.374,422.173 729.031,418.907 734.346,415.136L735.599,393.579C736.256,392.942 736.903,392.295 737.539,391.639L759.096,390.385C762.868,385.07 766.133,379.414 768.851,373.49L759.158,354.194C759.408,353.315 759.645,352.431 759.868,351.544L777.91,339.68C778.518,333.191 778.518,326.66 777.91,320.171L759.868,308.307C759.645,307.42 759.408,306.537 759.158,305.657L768.851,286.361C766.133,280.438 762.868,274.781 759.096,269.466L737.539,268.213C736.903,267.556 736.256,266.909 735.599,266.273L734.346,244.716C729.031,240.944 723.374,237.679 717.45,234.961L698.155,244.654C697.275,244.404 696.392,244.167 695.505,243.944L683.641,225.902ZM673.886,280.561C701.131,280.561 723.251,302.681 723.251,329.926C723.251,357.171 701.131,379.29 673.886,379.29C646.641,379.29 624.521,357.171 624.521,329.926C624.521,302.681 646.641,280.561 673.886,280.561Z" style="fill:rgb(41,41,41);stroke:white;stroke-width:0.94px;"/>
    </g>
    <g transform="matrix(1.38403,0,0,1.07169,-294.35,-220.257)">
        <path d="M858.74,600.308L326.314,600.308L326.314,848.465C326.314,902.103 360.034,945.65 401.566,945.65L783.487,945.65C825.02,945.65 858.74,902.103 858.74,848.465L858.74,600.308Z" style="fill:white;stroke:rgb(55,55,55);stroke-width:3.23px;"/>
    </g>
    <g id="Face" transform="matrix(1,0,0,1,-9.84957,0)">
        <g transform="matrix(1.47806,0,0,1.47806,-193.94,-405.746)">
            <circle cx="391.974" cy="651.726" r="37.247" style="fill:rgb(41,41,41);stroke:white;stroke-width:2.71px;"/>
        </g>
        <g transform="matrix(1.47806,0,0,1.47806,106.367,-405.034)">
            <circle cx="391.974" cy="651.726" r="37.247" style="fill:rgb(41,41,41);stroke:white;stroke-width:2.71px;"/>
        </g>
        <g transform="matrix(1.47806,0,0,1.8472,-307.188,-748.986)">
            <path d="M597.915,816.107C570.897,815.721 570.234,806.834 570.202,806.998C570.2,807.01 561.549,816.448 538.034,816.107L538.034,850.996C538.034,864.218 551.45,874.953 567.975,874.953C584.499,874.953 597.915,864.218 597.915,850.996L597.915,816.107Z" style="fill:white;stroke:rgb(41,41,41);stroke-width:4.78px;"/>
        </g>
        <g transform="matrix(1.47806,0,0,1.47806,-320.885,-418.609)">
            <path d="M579.509,708.385C587.661,702.161 603.965,702.161 612.118,707.97C620.27,713.778 620.27,725.395 612.118,737.012C606.411,745.725 591.737,754.438 579.509,760.246C567.28,754.438 552.606,745.725 546.9,737.012C538.747,725.395 538.747,713.778 546.9,707.97C555.052,702.161 571.356,702.161 579.509,708.385Z" style="fill:rgb(41,41,41);stroke:white;stroke-width:2.71px;"/>
        </g>
        <g transform="matrix(-1.47806,-1.81011e-16,1.81011e-16,-1.47806,930.717,1732.07)">
            <path d="M217.321,664.798C229.915,655.825 255.104,655.825 267.699,670.293C280.294,655.825 305.483,655.825 318.077,664.798" style="fill:none;stroke:rgb(41,41,41);stroke-width:5.41px;"/>
        </g>
        <g transform="matrix(1.47806,0,0,1.47806,-307.188,-408.073)">
            <rect x="569.83" y="744.359" width="0.187" height="30.274" style="fill:none;stroke:rgb(41,41,41);stroke-width:5.41px;"/>
        </g>
    </g>
    <g transform="matrix(1,0,0,1,-13.3813,-33.2276)">
        <circle cx="307.504" cy="368.168" r="34.04" style="fill:white;"/>
    </g>
    <g transform="matrix(1,0,0,1,433.555,-33.2276)">
        <circle cx="307.504" cy="368.168" r="34.04" style="fill:white;"/>
    </g>
</svg>
