<?xml version="1.0" encoding="UTF-8" standalone="no"?>
<!DOCTYPE svg PUBLIC "-//W3C//DTD SVG 1.1//EN" "http://www.w3.org/Graphics/SVG/1.1/DTD/svg11.dtd">
<svg width="100%" height="100%" viewBox="0 0 1080 1080" version="1.1" xmlns="http://www.w3.org/2000/svg" xmlns:xlink="http://www.w3.org/1999/xlink" xml:space="preserve" xmlns:serif="http://www.serif.com/" style="fill-rule:evenodd;clip-rule:evenodd;stroke-linecap:round;stroke-linejoin:round;stroke-miterlimit:1.5;">
    <path d="M999.07,248.092L999.07,831.908C999.07,868.719 969.184,898.605 932.374,898.605L147.626,898.605C110.816,898.605 80.93,868.719 80.93,831.908L80.93,248.092C80.93,211.281 110.816,181.395 147.626,181.395L932.374,181.395C969.184,181.395 999.07,211.281 999.07,248.092ZM961.395,277.623C961.395,244.537 934.533,217.674 901.447,217.674L178.553,217.674C145.467,217.674 118.605,244.537 118.605,277.623L118.605,802.377C118.605,835.463 145.467,862.326 178.553,862.326L901.447,862.326C934.533,862.326 961.395,835.463 961.395,802.377L961.395,277.623Z" style="stroke:white;stroke-width:4px;"/>
    <g transform="matrix(0.738109,0,0,0.738109,530.872,-12.7416)">
        <path d="M348.35,404.651L329.11,385.411L349.83,364.691L369.07,383.931L388.31,364.691L409.03,385.411L389.79,404.651L409.03,423.891L388.31,444.611L369.07,425.371L349.83,444.611L329.11,423.891L348.35,404.651Z" style="fill:rgb(192,173,240);"/>
    </g>
    <g transform="matrix(0.738109,0,0,0.738109,75.7427,-12.7416)">
        <path d="M348.35,404.651L329.11,385.411L349.83,364.691L369.07,383.931L388.31,364.691L409.03,385.411L389.79,404.651L409.03,423.891L388.31,444.611L369.07,425.371L349.83,444.611L329.11,423.891L348.35,404.651Z" style="fill:rgb(192,173,240);"/>
    </g>
    <g transform="matrix(0.738109,0,0,0.738109,609.458,-12.7416)">
        <path d="M348.35,404.651L329.11,385.411L349.83,364.691L369.07,383.931L388.31,364.691L409.03,385.411L389.79,404.651L409.03,423.891L388.31,444.611L369.07,425.371L349.83,444.611L329.11,423.891L348.35,404.651Z" style="fill:rgb(192,173,240);"/>
    </g>
    <g transform="matrix(0.738109,0,0,0.738109,456.171,-12.7416)">
        <path d="M348.35,404.651L329.11,385.411L349.83,364.691L369.07,383.931L388.31,364.691L409.03,385.411L389.79,404.651L409.03,423.891L388.31,444.611L369.07,425.371L349.83,444.611L329.11,423.891L348.35,404.651Z" style="fill:rgb(192,173,240);"/>
    </g>
    <g transform="matrix(0.738109,0,0,0.738109,-74.2852,278.384)">
        <path d="M348.35,404.651L329.11,385.411L349.83,364.691L369.07,383.931L388.31,364.691L409.03,385.411L389.79,404.651L409.03,423.891L388.31,444.611L369.07,425.371L349.83,444.611L329.11,423.891L348.35,404.651Z" style="fill:rgb(192,173,240);"/>
    </g>
    <g transform="matrix(0.738109,0,0,0.738109,530.872,278.384)">
        <path d="M348.35,404.651L329.11,385.411L349.83,364.691L369.07,383.931L388.31,364.691L409.03,385.411L389.79,404.651L409.03,423.891L388.31,444.611L369.07,425.371L349.83,444.611L329.11,423.891L348.35,404.651Z" style="fill:rgb(192,173,240);"/>
    </g>
    <g transform="matrix(0.738109,0,0,0.738109,227.557,278.384)">
        <path d="M348.35,404.651L329.11,385.411L349.83,364.691L369.07,383.931L388.31,364.691L409.03,385.411L389.79,404.651L409.03,423.891L388.31,444.611L369.07,425.371L349.83,444.611L329.11,423.891L348.35,404.651Z" style="fill:rgb(192,173,240);"/>
    </g>
    <g transform="matrix(0.738109,0,0,0.738109,75.7427,278.384)">
        <path d="M348.35,404.651L329.11,385.411L349.83,364.691L369.07,383.931L388.31,364.691L409.03,385.411L389.79,404.651L409.03,423.891L388.31,444.611L369.07,425.371L349.83,444.611L329.11,423.891L348.35,404.651Z" style="fill:rgb(192,173,240);"/>
    </g>
    <g transform="matrix(0.738109,0,0,0.738109,377.585,278.384)">
        <path d="M348.35,404.651L329.11,385.411L349.83,364.691L369.07,383.931L388.31,364.691L409.03,385.411L389.79,404.651L409.03,423.891L388.31,444.611L369.07,425.371L349.83,444.611L329.11,423.891L348.35,404.651Z" style="fill:rgb(192,173,240);"/>
    </g>
    <g transform="matrix(0.738109,0,0,0.738109,4.30084,278.384)">
        <path d="M348.35,404.651L329.11,385.411L349.83,364.691L369.07,383.931L388.31,364.691L409.03,385.411L389.79,404.651L409.03,423.891L388.31,444.611L369.07,425.371L349.83,444.611L329.11,423.891L348.35,404.651Z" style="fill:rgb(192,173,240);"/>
    </g>
    <g transform="matrix(0.738109,0,0,0.738109,306.143,278.384)">
        <path d="M348.35,404.651L329.11,385.411L349.83,364.691L369.07,383.931L388.31,364.691L409.03,385.411L389.79,404.651L409.03,423.891L388.31,444.611L369.07,425.371L349.83,444.611L329.11,423.891L348.35,404.651Z" style="fill:rgb(192,173,240);"/>
    </g>
    <g transform="matrix(0.738109,0,0,0.738109,154.329,278.384)">
        <path d="M348.35,404.651L329.11,385.411L349.83,364.691L369.07,383.931L388.31,364.691L409.03,385.411L389.79,404.651L409.03,423.891L388.31,444.611L369.07,425.371L349.83,444.611L329.11,423.891L348.35,404.651Z" style="fill:rgb(192,173,240);"/>
    </g>
    <g transform="matrix(0.738109,0,0,0.738109,456.171,278.384)">
        <path d="M348.35,404.651L329.11,385.411L349.83,364.691L369.07,383.931L388.31,364.691L409.03,385.411L389.79,404.651L409.03,423.891L388.31,444.611L369.07,425.371L349.83,444.611L329.11,423.891L348.35,404.651Z" style="fill:rgb(192,173,240);"/>
    </g>
    <g transform="matrix(0.738109,0,0,0.738109,-74.2852,131.035)">
        <path d="M348.35,404.651L329.11,385.411L349.83,364.691L369.07,383.931L388.31,364.691L409.03,385.411L389.79,404.651L409.03,423.891L388.31,444.611L369.07,425.371L349.83,444.611L329.11,423.891L348.35,404.651Z" style="fill:rgb(192,173,240);"/>
    </g>
    <g transform="matrix(0.738109,0,0,0.738109,530.872,131.035)">
        <path d="M348.35,404.651L329.11,385.411L349.83,364.691L369.07,383.931L388.31,364.691L409.03,385.411L389.79,404.651L409.03,423.891L388.31,444.611L369.07,425.371L349.83,444.611L329.11,423.891L348.35,404.651Z" style="fill:rgb(192,173,240);"/>
    </g>
    <g transform="matrix(0.738109,0,0,0.738109,75.7427,131.035)">
        <path d="M348.35,404.651L329.11,385.411L349.83,364.691L369.07,383.931L388.31,364.691L409.03,385.411L389.79,404.651L409.03,423.891L388.31,444.611L369.07,425.371L349.83,444.611L329.11,423.891L348.35,404.651Z" style="fill:rgb(192,173,240);"/>
    </g>
    <g transform="matrix(0.738109,0,0,0.738109,4.30084,131.035)">
        <path d="M348.35,404.651L329.11,385.411L349.83,364.691L369.07,383.931L388.31,364.691L409.03,385.411L389.79,404.651L409.03,423.891L388.31,444.611L369.07,425.371L349.83,444.611L329.11,423.891L348.35,404.651Z" style="fill:rgb(192,173,240);"/>
    </g>
    <g transform="matrix(0.738109,0,0,0.738109,306.143,131.035)">
        <path d="M348.35,404.651L329.11,385.411L349.83,364.691L369.07,383.931L388.31,364.691L409.03,385.411L389.79,404.651L409.03,423.891L388.31,444.611L369.07,425.371L349.83,444.611L329.11,423.891L348.35,404.651Z" style="fill:rgb(192,173,240);"/>
    </g>
    <g transform="matrix(0.738109,0,0,0.738109,154.329,131.035)">
        <path d="M348.35,404.651L329.11,385.411L349.83,364.691L369.07,383.931L388.31,364.691L409.03,385.411L389.79,404.651L409.03,423.891L388.31,444.611L369.07,425.371L349.83,444.611L329.11,423.891L348.35,404.651Z" style="fill:rgb(192,173,240);"/>
    </g>
    <g transform="matrix(0.738109,0,0,0.738109,456.171,131.035)">
        <path d="M348.35,404.651L329.11,385.411L349.83,364.691L369.07,383.931L388.31,364.691L409.03,385.411L389.79,404.651L409.03,423.891L388.31,444.611L369.07,425.371L349.83,444.611L329.11,423.891L348.35,404.651Z" style="fill:rgb(192,173,240);"/>
    </g>
    <g transform="matrix(0.738109,0,0,0.738109,530.872,422.161)">
        <path d="M348.35,404.651L329.11,385.411L349.83,364.691L369.07,383.931L388.31,364.691L409.03,385.411L389.79,404.651L409.03,423.891L388.31,444.611L369.07,425.371L349.83,444.611L329.11,423.891L348.35,404.651Z" style="fill:rgb(192,173,240);"/>
    </g>
    <g transform="matrix(0.738109,0,0,0.738109,75.7427,422.161)">
        <path d="M348.35,404.651L329.11,385.411L349.83,364.691L369.07,383.931L388.31,364.691L409.03,385.411L389.79,404.651L409.03,423.891L388.31,444.611L369.07,425.371L349.83,444.611L329.11,423.891L348.35,404.651Z" style="fill:rgb(192,173,240);"/>
    </g>
    <g transform="matrix(0.738109,0,0,0.738109,609.458,422.161)">
        <path d="M348.35,404.651L329.11,385.411L349.83,364.691L369.07,383.931L388.31,364.691L409.03,385.411L389.79,404.651L409.03,423.891L388.31,444.611L369.07,425.371L349.83,444.611L329.11,423.891L348.35,404.651Z" style="fill:rgb(192,173,240);"/>
    </g>
    <g transform="matrix(0.738109,0,0,0.738109,154.329,422.161)">
        <path d="M348.35,404.651L329.11,385.411L349.83,364.691L369.07,383.931L388.31,364.691L409.03,385.411L389.79,404.651L409.03,423.891L388.31,444.611L369.07,425.371L349.83,444.611L329.11,423.891L348.35,404.651Z" style="fill:rgb(192,173,240);"/>
    </g>
    <g transform="matrix(0.738109,0,0,0.738109,456.171,422.161)">
        <path d="M348.35,404.651L329.11,385.411L349.83,364.691L369.07,383.931L388.31,364.691L409.03,385.411L389.79,404.651L409.03,423.891L388.31,444.611L369.07,425.371L349.83,444.611L329.11,423.891L348.35,404.651Z" style="fill:rgb(192,173,240);"/>
    </g>
    <g transform="matrix(0.738109,0,0,0.738109,530.872,60.4863)">
        <path d="M348.35,404.651L329.11,385.411L349.83,364.691L369.07,383.931L388.31,364.691L409.03,385.411L389.79,404.651L409.03,423.891L388.31,444.611L369.07,425.371L349.83,444.611L329.11,423.891L348.35,404.651Z" style="fill:rgb(192,173,240);"/>
    </g>
    <g transform="matrix(0.738109,0,0,0.738109,227.557,60.4863)">
        <path d="M348.35,404.651L329.11,385.411L349.83,364.691L369.07,383.931L388.31,364.691L409.03,385.411L389.79,404.651L409.03,423.891L388.31,444.611L369.07,425.371L349.83,444.611L329.11,423.891L348.35,404.651Z" style="fill:rgb(192,173,240);"/>
    </g>
    <g transform="matrix(0.738109,0,0,0.738109,75.7427,60.4863)">
        <path d="M348.35,404.651L329.11,385.411L349.83,364.691L369.07,383.931L388.31,364.691L409.03,385.411L389.79,404.651L409.03,423.891L388.31,444.611L369.07,425.371L349.83,444.611L329.11,423.891L348.35,404.651Z" style="fill:rgb(192,173,240);"/>
    </g>
    <g transform="matrix(0.738109,0,0,0.738109,377.585,60.4863)">
        <path d="M348.35,404.651L329.11,385.411L349.83,364.691L369.07,383.931L388.31,364.691L409.03,385.411L389.79,404.651L409.03,423.891L388.31,444.611L369.07,425.371L349.83,444.611L329.11,423.891L348.35,404.651Z" style="fill:rgb(192,173,240);"/>
    </g>
    <g transform="matrix(0.738109,0,0,0.738109,4.30084,60.4863)">
        <path d="M348.35,404.651L329.11,385.411L349.83,364.691L369.07,383.931L388.31,364.691L409.03,385.411L389.79,404.651L409.03,423.891L388.31,444.611L369.07,425.371L349.83,444.611L329.11,423.891L348.35,404.651Z" style="fill:rgb(192,173,240);"/>
    </g>
    <g transform="matrix(0.738109,0,0,0.738109,609.458,60.4863)">
        <path d="M348.35,404.651L329.11,385.411L349.83,364.691L369.07,383.931L388.31,364.691L409.03,385.411L389.79,404.651L409.03,423.891L388.31,444.611L369.07,425.371L349.83,444.611L329.11,423.891L348.35,404.651Z" style="fill:rgb(192,173,240);"/>
    </g>
    <g transform="matrix(0.738109,0,0,0.738109,154.329,60.4863)">
        <path d="M348.35,404.651L329.11,385.411L349.83,364.691L369.07,383.931L388.31,364.691L409.03,385.411L389.79,404.651L409.03,423.891L388.31,444.611L369.07,425.371L349.83,444.611L329.11,423.891L348.35,404.651Z" style="fill:rgb(192,173,240);"/>
    </g>
    <g transform="matrix(0.738109,0,0,0.738109,456.171,60.4863)">
        <path d="M348.35,404.651L329.11,385.411L349.83,364.691L369.07,383.931L388.31,364.691L409.03,385.411L389.79,404.651L409.03,423.891L388.31,444.611L369.07,425.371L349.83,444.611L329.11,423.891L348.35,404.651Z" style="fill:rgb(192,173,240);"/>
    </g>
    <g transform="matrix(0.738109,0,0,0.738109,530.872,351.612)">
        <path d="M348.35,404.651L329.11,385.411L349.83,364.691L369.07,383.931L388.31,364.691L409.03,385.411L389.79,404.651L409.03,423.891L388.31,444.611L369.07,425.371L349.83,444.611L329.11,423.891L348.35,404.651Z" style="fill:rgb(192,173,240);"/>
    </g>
    <g transform="matrix(0.738109,0,0,0.738109,227.557,351.612)">
        <path d="M348.35,404.651L329.11,385.411L349.83,364.691L369.07,383.931L388.31,364.691L409.03,385.411L389.79,404.651L409.03,423.891L388.31,444.611L369.07,425.371L349.83,444.611L329.11,423.891L348.35,404.651Z" style="fill:rgb(192,173,240);"/>
    </g>
    <g transform="matrix(0.738109,0,0,0.738109,75.7427,351.612)">
        <path d="M348.35,404.651L329.11,385.411L349.83,364.691L369.07,383.931L388.31,364.691L409.03,385.411L389.79,404.651L409.03,423.891L388.31,444.611L369.07,425.371L349.83,444.611L329.11,423.891L348.35,404.651Z" style="fill:rgb(192,173,240);"/>
    </g>
    <g transform="matrix(0.738109,0,0,0.738109,377.585,351.612)">
        <path d="M348.35,404.651L329.11,385.411L349.83,364.691L369.07,383.931L388.31,364.691L409.03,385.411L389.79,404.651L409.03,423.891L388.31,444.611L369.07,425.371L349.83,444.611L329.11,423.891L348.35,404.651Z" style="fill:rgb(192,173,240);"/>
    </g>
    <g transform="matrix(0.738109,0,0,0.738109,4.30084,351.612)">
        <path d="M348.35,404.651L329.11,385.411L349.83,364.691L369.07,383.931L388.31,364.691L409.03,385.411L389.79,404.651L409.03,423.891L388.31,444.611L369.07,425.371L349.83,444.611L329.11,423.891L348.35,404.651Z" style="fill:rgb(192,173,240);"/>
    </g>
    <g transform="matrix(0.738109,0,0,0.738109,609.458,351.612)">
        <path d="M348.35,404.651L329.11,385.411L349.83,364.691L369.07,383.931L388.31,364.691L409.03,385.411L389.79,404.651L409.03,423.891L388.31,444.611L369.07,425.371L349.83,444.611L329.11,423.891L348.35,404.651Z" style="fill:rgb(192,173,240);"/>
    </g>
    <g transform="matrix(0.738109,0,0,0.738109,154.329,351.612)">
        <path d="M348.35,404.651L329.11,385.411L349.83,364.691L369.07,383.931L388.31,364.691L409.03,385.411L389.79,404.651L409.03,423.891L388.31,444.611L369.07,425.371L349.83,444.611L329.11,423.891L348.35,404.651Z" style="fill:rgb(192,173,240);"/>
    </g>
    <g transform="matrix(0.738109,0,0,0.738109,456.171,351.612)">
        <path d="M348.35,404.651L329.11,385.411L349.83,364.691L369.07,383.931L388.31,364.691L409.03,385.411L389.79,404.651L409.03,423.891L388.31,444.611L369.07,425.371L349.83,444.611L329.11,423.891L348.35,404.651Z" style="fill:rgb(192,173,240);"/>
    </g>
    <g transform="matrix(0.738109,0,0,0.738109,-74.2852,204.263)">
        <path d="M348.35,404.651L329.11,385.411L349.83,364.691L369.07,383.931L388.31,364.691L409.03,385.411L389.79,404.651L409.03,423.891L388.31,444.611L369.07,425.371L349.83,444.611L329.11,423.891L348.35,404.651Z" style="fill:rgb(192,173,240);"/>
    </g>
    <g transform="matrix(0.738109,0,0,0.738109,227.557,204.263)">
        <path d="M348.35,404.651L329.11,385.411L349.83,364.691L369.07,383.931L388.31,364.691L409.03,385.411L389.79,404.651L409.03,423.891L388.31,444.611L369.07,425.371L349.83,444.611L329.11,423.891L348.35,404.651Z" style="fill:rgb(192,173,240);"/>
    </g>
    <g transform="matrix(0.738109,0,0,0.738109,75.7427,204.263)">
        <path d="M348.35,404.651L329.11,385.411L349.83,364.691L369.07,383.931L388.31,364.691L409.03,385.411L389.79,404.651L409.03,423.891L388.31,444.611L369.07,425.371L349.83,444.611L329.11,423.891L348.35,404.651Z" style="fill:rgb(192,173,240);"/>
    </g>
    <g transform="matrix(0.738109,0,0,0.738109,377.585,204.263)">
        <path d="M348.35,404.651L329.11,385.411L349.83,364.691L369.07,383.931L388.31,364.691L409.03,385.411L389.79,404.651L409.03,423.891L388.31,444.611L369.07,425.371L349.83,444.611L329.11,423.891L348.35,404.651Z" style="fill:rgb(192,173,240);"/>
    </g>
    <g transform="matrix(0.738109,0,0,0.738109,4.30084,204.263)">
        <path d="M348.35,404.651L329.11,385.411L349.83,364.691L369.07,383.931L388.31,364.691L409.03,385.411L389.79,404.651L409.03,423.891L388.31,444.611L369.07,425.371L349.83,444.611L329.11,423.891L348.35,404.651Z" style="fill:rgb(192,173,240);"/>
    </g>
    <g transform="matrix(0.738109,0,0,0.738109,306.143,204.263)">
        <path d="M348.35,404.651L329.11,385.411L349.83,364.691L369.07,383.931L388.31,364.691L409.03,385.411L389.79,404.651L409.03,423.891L388.31,444.611L369.07,425.371L349.83,444.611L329.11,423.891L348.35,404.651Z" style="fill:rgb(192,173,240);"/>
    </g>
    <g transform="matrix(0.738109,0,0,0.738109,154.329,204.263)">
        <path d="M348.35,404.651L329.11,385.411L349.83,364.691L369.07,383.931L388.31,364.691L409.03,385.411L389.79,404.651L409.03,423.891L388.31,444.611L369.07,425.371L349.83,444.611L329.11,423.891L348.35,404.651Z" style="fill:rgb(192,173,240);"/>
    </g>
    <g transform="matrix(0.738109,0,0,0.738109,456.171,204.263)">
        <path d="M348.35,404.651L329.11,385.411L349.83,364.691L369.07,383.931L388.31,364.691L409.03,385.411L389.79,404.651L409.03,423.891L388.31,444.611L369.07,425.371L349.83,444.611L329.11,423.891L348.35,404.651Z" style="fill:rgb(192,173,240);"/>
    </g>
    <g transform="matrix(0.738109,0,0,0.738109,530.872,495.389)">
        <path d="M348.35,404.651L329.11,385.411L349.83,364.691L369.07,383.931L388.31,364.691L409.03,385.411L389.79,404.651L409.03,423.891L388.31,444.611L369.07,425.371L349.83,444.611L329.11,423.891L348.35,404.651Z" style="fill:rgb(192,173,240);"/>
    </g>
</svg>
