<?xml version="1.0" encoding="UTF-8" standalone="no"?>
<!DOCTYPE svg PUBLIC "-//W3C//DTD SVG 1.1//EN" "http://www.w3.org/Graphics/SVG/1.1/DTD/svg11.dtd">
<svg width="100%" height="100%" viewBox="0 0 1080 1080" version="1.1" xmlns="http://www.w3.org/2000/svg" xmlns:xlink="http://www.w3.org/1999/xlink" xml:space="preserve" xmlns:serif="http://www.serif.com/" style="fill-rule:evenodd;clip-rule:evenodd;stroke-linecap:round;stroke-linejoin:round;stroke-miterlimit:1.5;">
    <g transform="matrix(1,0,0,1,11.8472,7.78083)">
        <g id="body" transform="matrix(13.6999,-2.54289e-31,0,10.3152,-6142.7,-5118.44)">
            <path d="M486.977,526.381C486.977,526.381 470.233,560.628 470.233,575.306C470.233,575.577 486.772,597.544 486.977,597.544C487.181,597.544 503.721,575.577 503.721,575.306C503.721,560.628 486.977,526.381 486.977,526.381Z" style="fill:rgb(171,171,171);"/>
            <clipPath id="_clip1">
                <path d="M486.977,526.381C486.977,526.381 470.233,560.628 470.233,575.306C470.233,575.577 486.772,597.544 486.977,597.544C487.181,597.544 503.721,575.577 503.721,575.306C503.721,560.628 486.977,526.381 486.977,526.381Z"/>
            </clipPath>
            <g clip-path="url(#_clip1)">
                <g transform="matrix(-0.105027,-1.70825e-17,1.91364e-17,-0.207534,555.951,665.4)">
                    <path d="M670.027,395.457C723.951,424.659 776.34,462.685 820.775,504.946C823.391,507.434 824.532,510.488 823.976,513.512C812.978,573.215 793.171,634.153 766.975,688.919C764.949,693.153 759.664,696.316 753.171,697.178C691.458,705.372 625.751,705.372 564.038,697.178C557.545,696.316 552.26,693.153 550.234,688.919C524.038,634.153 504.231,573.215 493.234,513.512C492.677,510.488 493.818,507.434 496.434,504.946C540.869,462.685 593.259,424.659 647.182,395.457C653.85,391.847 663.359,391.847 670.027,395.457Z" style="stroke:black;stroke-width:2.19px;"/>
                </g>
            </g>
            <path d="M486.977,526.381C486.977,526.381 470.233,560.628 470.233,575.306C470.233,575.577 486.772,597.544 486.977,597.544C487.181,597.544 503.721,575.577 503.721,575.306C503.721,560.628 486.977,526.381 486.977,526.381Z" style="fill:none;stroke:white;stroke-width:1.32px;"/>
        </g>
        <g id="head" transform="matrix(1.17173,0,0,1.17173,-90.3905,-4.16187)">
            <g transform="matrix(0.859815,-1.3288,1.3288,0.859815,-650.343,299.242)">
                <path d="M285.181,400.787C285.181,400.787 239.935,505.807 239.935,550.815C239.935,575.787 260.209,596.062 285.181,596.062C310.153,596.062 330.428,575.787 330.428,550.815C330.428,505.807 285.181,400.787 285.181,400.787Z" style="fill:rgb(171,171,171);stroke:white;stroke-width:8.63px;"/>
            </g>
            <g transform="matrix(0.79136,1.37068,-1.37068,0.79136,1252.01,-436.48)">
                <path d="M285.181,400.787C285.181,400.787 239.935,505.807 239.935,550.815C239.935,575.787 260.209,596.062 285.181,596.062C310.153,596.062 330.428,575.787 330.428,550.815C330.428,505.807 285.181,400.787 285.181,400.787Z" style="fill:rgb(171,171,171);stroke:white;stroke-width:8.63px;"/>
            </g>
            <g transform="matrix(-1.2894,-1.57906e-16,2.00583e-16,-1.63788,1375.32,1383.22)">
                <path d="M658.605,404.986C711.305,433.525 762.48,470.706 805.908,512.008C795.051,570.949 775.504,631.108 749.643,685.173C690.232,693.061 626.977,693.061 567.566,685.173C541.705,631.108 522.158,570.949 511.301,512.008C554.729,470.706 605.904,433.525 658.605,404.986Z" style="fill:rgb(171,171,171);"/>
                <clipPath id="_clip2">
                    <path d="M658.605,404.986C711.305,433.525 762.48,470.706 805.908,512.008C795.051,570.949 775.504,631.108 749.643,685.173C690.232,693.061 626.977,693.061 567.566,685.173C541.705,631.108 522.158,570.949 511.301,512.008C554.729,470.706 605.904,433.525 658.605,404.986Z"/>
                </clipPath>
                <g clip-path="url(#_clip2)">
                    <g transform="matrix(-0.502404,4.84359e-17,-6.15267e-17,-0.395509,969.919,704.557)">
                        <path d="M618.195,576.91C699.827,576.91 766.102,643.185 766.102,724.817C766.102,806.449 699.827,872.724 618.195,872.724C536.563,872.724 470.289,806.449 470.289,724.817C470.289,643.185 536.563,576.91 618.195,576.91ZM618.195,601.156C686.446,601.156 741.856,656.566 741.856,724.817C741.856,793.067 686.446,848.478 618.195,848.478C549.945,848.478 494.534,793.067 494.534,724.817C494.534,656.566 549.945,601.156 618.195,601.156Z" style="fill:white;stroke:black;stroke-width:5.27px;"/>
                    </g>
                </g>
                <path d="M658.605,404.986C711.305,433.525 762.48,470.706 805.908,512.008C795.051,570.949 775.504,631.108 749.643,685.173C690.232,693.061 626.977,693.061 567.566,685.173C541.705,631.108 522.158,570.949 511.301,512.008C554.729,470.706 605.904,433.525 658.605,404.986Z" style="fill:none;stroke:white;stroke-width:9.26px;"/>
            </g>
            <g>
                <g transform="matrix(1.04356,0,0,1.04356,-66.9621,-221.322)">
                    <path d="M692.399,238.059C692.399,238.059 661.441,336.41 661.441,378.561C661.441,395.647 675.313,409.519 692.399,409.519C709.486,409.519 723.358,395.647 723.358,378.561C723.358,336.41 692.399,238.059 692.399,238.059Z" style="fill:white;stroke:white;stroke-width:13.09px;"/>
                </g>
                <g transform="matrix(1.45999,0.542877,-0.627214,1.6868,-148.45,-757.59)">
                    <path d="M692.399,238.059C692.399,238.059 661.441,339.324 661.441,382.724C661.441,397.513 675.313,409.519 692.399,409.519C709.486,409.519 723.358,397.513 723.358,382.724C723.358,339.324 692.399,238.059 692.399,238.059Z" style="fill:white;stroke:white;stroke-width:8.11px;"/>
                </g>
            </g>
            <g transform="matrix(-1,0,0,1,1074.29,0)">
                <g transform="matrix(1.04356,0,0,1.04356,-66.9621,-221.322)">
                    <path d="M692.399,238.059C692.399,238.059 661.441,336.41 661.441,378.561C661.441,395.647 675.313,409.519 692.399,409.519C709.486,409.519 723.358,395.647 723.358,378.561C723.358,336.41 692.399,238.059 692.399,238.059Z" style="fill:white;stroke:white;stroke-width:13.09px;"/>
                </g>
                <g transform="matrix(1.45999,0.542877,-0.627214,1.6868,-148.45,-757.59)">
                    <path d="M692.399,238.059C692.399,238.059 661.441,339.324 661.441,382.724C661.441,397.513 675.313,409.519 692.399,409.519C709.486,409.519 723.358,397.513 723.358,382.724C723.358,339.324 692.399,238.059 692.399,238.059Z" style="fill:white;stroke:white;stroke-width:8.11px;"/>
                </g>
            </g>
            <g transform="matrix(1.2894,0,0,1.2894,194.924,-221.064)">
                <path d="M257.081,680.998C265.704,669.091 282.95,669.091 291.573,675.235C300.197,681.379 300.197,693.667 291.573,705.955C285.537,715.171 270.016,724.387 257.081,730.531C244.146,724.387 228.624,715.171 222.588,705.955C213.965,693.667 213.965,681.379 222.588,675.235C231.211,669.091 248.458,669.091 257.081,680.998Z" style="stroke:white;stroke-width:10.59px;"/>
            </g>
            <g transform="matrix(1.15661,0.190715,-0.190715,1.15661,-273.059,-405.642)">
                <path d="M833.979,591.307L911.374,591.307C911.374,612.665 894.034,630.005 872.677,630.005C851.319,630.005 833.979,612.665 833.979,591.307Z" style="stroke:white;stroke-width:11.65px;"/>
            </g>
            <g transform="matrix(1.35703,0.223763,-0.223763,1.35703,-425.118,-573.03)">
                <path d="M833.979,591.307L911.374,591.307C911.374,612.665 894.034,630.005 872.677,630.005C851.319,630.005 833.979,612.665 833.979,591.307Z" style="fill:white;stroke:white;stroke-width:9.93px;"/>
            </g>
            <g>
                <path d="M490.781,230.005C498.113,230.691 505.482,232.215 512.766,234.639C539.65,243.586 560.111,263.032 571.11,286.905C575.176,295.435 578.028,304.687 579.393,314.5C580.33,321.234 580.491,327.999 579.952,334.69C579.401,342.849 577.817,351.07 575.116,359.186C534.179,482.197 420.973,534.053 286.923,549.441C299.529,536.455 310.046,524.747 318.846,514.013C293.772,516.578 268.097,515.46 238.711,507.283C284.323,489.037 327.814,459.049 349.069,413.753C374.341,359.897 369.402,283.434 424.026,246.567C430.757,242.024 438.243,238.552 445.855,235.621C460.589,229.949 475.942,228.296 490.781,230.005Z" style="stroke:white;stroke-width:13.65px;"/>
            </g>
            <path d="M719.049,480.167C710.007,477.892 703.304,469.701 703.304,459.957C703.304,448.457 712.641,439.12 724.142,439.12C735.642,439.12 744.979,448.457 744.979,459.957C744.979,467.998 740.415,474.98 733.739,478.454L728.305,498.308C727.806,500.134 725.918,501.21 724.093,500.711L717.478,498.9C715.652,498.4 714.576,496.513 715.075,494.687L719.049,480.167Z" style="fill:white;stroke:white;stroke-width:13.65px;"/>
        </g>
    </g>
    <g transform="matrix(1,0,0,1,11.8472,7.78083)">
        <g id="body1" serif:id="body" transform="matrix(13.6999,-2.54289e-31,0,10.3152,-6142.7,-5118.44)">
            <path d="M486.977,526.381C486.977,526.381 470.233,560.628 470.233,575.306C470.233,575.577 486.772,597.544 486.977,597.544C487.181,597.544 503.721,575.577 503.721,575.306C503.721,560.628 486.977,526.381 486.977,526.381Z" style="fill:rgb(171,171,171);"/>
            <clipPath id="_clip3">
                <path d="M486.977,526.381C486.977,526.381 470.233,560.628 470.233,575.306C470.233,575.577 486.772,597.544 486.977,597.544C487.181,597.544 503.721,575.577 503.721,575.306C503.721,560.628 486.977,526.381 486.977,526.381Z"/>
            </clipPath>
            <g clip-path="url(#_clip3)">
                <g transform="matrix(-0.105027,-1.70825e-17,1.91364e-17,-0.207534,555.951,665.4)">
                    <path d="M670.027,395.457C723.951,424.659 776.34,462.685 820.775,504.946C823.391,507.434 824.532,510.488 823.976,513.512C812.978,573.215 793.171,634.153 766.975,688.919C764.949,693.153 759.664,696.316 753.171,697.178C691.458,705.372 625.751,705.372 564.038,697.178C557.545,696.316 552.26,693.153 550.234,688.919C524.038,634.153 504.231,573.215 493.234,513.512C492.677,510.488 493.818,507.434 496.434,504.946C540.869,462.685 593.259,424.659 647.182,395.457C653.85,391.847 663.359,391.847 670.027,395.457Z" style="stroke:black;stroke-width:2.19px;"/>
                </g>
            </g>
            <path d="M486.977,526.381C486.977,526.381 470.233,560.628 470.233,575.306C470.233,575.577 486.772,597.544 486.977,597.544C487.181,597.544 503.721,575.577 503.721,575.306C503.721,560.628 486.977,526.381 486.977,526.381Z" style="fill:none;stroke:black;stroke-width:0.33px;"/>
        </g>
        <g id="head1" serif:id="head" transform="matrix(1.17173,0,0,1.17173,-90.3905,-4.16187)">
            <g transform="matrix(0.859815,-1.3288,1.3288,0.859815,-650.343,299.242)">
                <path d="M285.181,400.787C285.181,400.787 239.935,505.807 239.935,550.815C239.935,575.787 260.209,596.062 285.181,596.062C310.153,596.062 330.428,575.787 330.428,550.815C330.428,505.807 285.181,400.787 285.181,400.787Z" style="fill:rgb(171,171,171);stroke:black;stroke-width:2.16px;"/>
            </g>
            <g transform="matrix(0.79136,1.37068,-1.37068,0.79136,1252.01,-436.48)">
                <path d="M285.181,400.787C285.181,400.787 239.935,505.807 239.935,550.815C239.935,575.787 260.209,596.062 285.181,596.062C310.153,596.062 330.428,575.787 330.428,550.815C330.428,505.807 285.181,400.787 285.181,400.787Z" style="fill:rgb(171,171,171);stroke:black;stroke-width:2.16px;"/>
            </g>
            <g transform="matrix(-1.2894,-1.57906e-16,2.00583e-16,-1.63788,1375.32,1383.22)">
                <path d="M658.605,404.986C711.305,433.525 762.48,470.706 805.908,512.008C795.051,570.949 775.504,631.108 749.643,685.173C690.232,693.061 626.977,693.061 567.566,685.173C541.705,631.108 522.158,570.949 511.301,512.008C554.729,470.706 605.904,433.525 658.605,404.986Z" style="fill:rgb(171,171,171);"/>
                <clipPath id="_clip4">
                    <path d="M658.605,404.986C711.305,433.525 762.48,470.706 805.908,512.008C795.051,570.949 775.504,631.108 749.643,685.173C690.232,693.061 626.977,693.061 567.566,685.173C541.705,631.108 522.158,570.949 511.301,512.008C554.729,470.706 605.904,433.525 658.605,404.986Z"/>
                </clipPath>
                <g clip-path="url(#_clip4)">
                    <g transform="matrix(-0.502404,4.84359e-17,-6.15267e-17,-0.395509,969.919,704.557)">
                        <path d="M618.195,576.91C699.827,576.91 766.102,643.185 766.102,724.817C766.102,806.449 699.827,872.724 618.195,872.724C536.563,872.724 470.289,806.449 470.289,724.817C470.289,643.185 536.563,576.91 618.195,576.91ZM618.195,601.156C686.446,601.156 741.856,656.566 741.856,724.817C741.856,793.067 686.446,848.478 618.195,848.478C549.945,848.478 494.534,793.067 494.534,724.817C494.534,656.566 549.945,601.156 618.195,601.156Z" style="fill:white;stroke:black;stroke-width:5.27px;"/>
                    </g>
                </g>
                <path d="M658.605,404.986C711.305,433.525 762.48,470.706 805.908,512.008C795.051,570.949 775.504,631.108 749.643,685.173C690.232,693.061 626.977,693.061 567.566,685.173C541.705,631.108 522.158,570.949 511.301,512.008C554.729,470.706 605.904,433.525 658.605,404.986Z" style="fill:none;stroke:black;stroke-width:2.32px;"/>
            </g>
            <g>
                <g transform="matrix(1.04356,0,0,1.04356,-66.9621,-221.322)">
                    <path d="M692.399,238.059C692.399,238.059 661.441,336.41 661.441,378.561C661.441,395.647 675.313,409.519 692.399,409.519C709.486,409.519 723.358,395.647 723.358,378.561C723.358,336.41 692.399,238.059 692.399,238.059Z" style="fill:white;stroke:black;stroke-width:3.27px;"/>
                </g>
                <g transform="matrix(1.45999,0.542877,-0.627214,1.6868,-148.45,-757.59)">
                    <path d="M692.399,238.059C692.399,238.059 661.441,339.324 661.441,382.724C661.441,397.513 675.313,409.519 692.399,409.519C709.486,409.519 723.358,397.513 723.358,382.724C723.358,339.324 692.399,238.059 692.399,238.059Z" style="fill:white;stroke:black;stroke-width:2.03px;"/>
                </g>
            </g>
            <g transform="matrix(-1,0,0,1,1074.29,0)">
                <g transform="matrix(1.04356,0,0,1.04356,-66.9621,-221.322)">
                    <path d="M692.399,238.059C692.399,238.059 661.441,336.41 661.441,378.561C661.441,395.647 675.313,409.519 692.399,409.519C709.486,409.519 723.358,395.647 723.358,378.561C723.358,336.41 692.399,238.059 692.399,238.059Z" style="fill:white;stroke:black;stroke-width:3.27px;"/>
                </g>
                <g transform="matrix(1.45999,0.542877,-0.627214,1.6868,-148.45,-757.59)">
                    <path d="M692.399,238.059C692.399,238.059 661.441,339.324 661.441,382.724C661.441,397.513 675.313,409.519 692.399,409.519C709.486,409.519 723.358,397.513 723.358,382.724C723.358,339.324 692.399,238.059 692.399,238.059Z" style="fill:white;stroke:black;stroke-width:2.03px;"/>
                </g>
            </g>
            <g transform="matrix(1.2894,0,0,1.2894,194.924,-221.064)">
                <path d="M257.081,680.998C265.704,669.091 282.95,669.091 291.573,675.235C300.197,681.379 300.197,693.667 291.573,705.955C285.537,715.171 270.016,724.387 257.081,730.531C244.146,724.387 228.624,715.171 222.588,705.955C213.965,693.667 213.965,681.379 222.588,675.235C231.211,669.091 248.458,669.091 257.081,680.998Z" style="stroke:rgb(171,171,171);stroke-width:2.65px;"/>
            </g>
            <g transform="matrix(1.15661,0.190715,-0.190715,1.15661,-273.059,-405.642)">
                <path d="M833.979,591.307L911.374,591.307C911.374,612.665 894.034,630.005 872.677,630.005C851.319,630.005 833.979,612.665 833.979,591.307Z" style="stroke:black;stroke-width:2.91px;"/>
            </g>
            <g transform="matrix(1.35703,0.223763,-0.223763,1.35703,-425.118,-573.03)">
                <path d="M833.979,591.307L911.374,591.307C911.374,612.665 894.034,630.005 872.677,630.005C851.319,630.005 833.979,612.665 833.979,591.307Z" style="fill:white;stroke:black;stroke-width:2.48px;"/>
            </g>
            <g>
                <path d="M490.781,230.005C498.113,230.691 505.482,232.215 512.766,234.639C539.65,243.586 560.111,263.032 571.11,286.905C575.176,295.435 578.028,304.687 579.393,314.5C580.33,321.234 580.491,327.999 579.952,334.69C579.401,342.849 577.817,351.07 575.116,359.186C534.179,482.197 420.973,534.053 286.923,549.441C299.529,536.455 310.046,524.747 318.846,514.013C293.772,516.578 268.097,515.46 238.711,507.283C284.323,489.037 327.814,459.049 349.069,413.753C374.341,359.897 369.402,283.434 424.026,246.567C430.757,242.024 438.243,238.552 445.855,235.621C460.589,229.949 475.942,228.296 490.781,230.005Z" style="stroke:black;stroke-width:3.41px;"/>
            </g>
            <path d="M719.049,480.167C710.007,477.892 703.304,469.701 703.304,459.957C703.304,448.457 712.641,439.12 724.142,439.12C735.642,439.12 744.979,448.457 744.979,459.957C744.979,467.998 740.415,474.98 733.739,478.454L728.305,498.308C727.806,500.134 725.918,501.21 724.093,500.711L717.478,498.9C715.652,498.4 714.576,496.513 715.075,494.687L719.049,480.167Z" style="fill:white;stroke:black;stroke-width:3.41px;"/>
        </g>
    </g>
</svg>
